HIERARCHY
ROOT Hips
{
	OFFSET -0.001795 -0.223333 0.028219
	CHANNELS 6 Xposition Yposition Zposition Zrotation Yrotation Xrotation 
	JOINT LeftUpLeg
	{
		OFFSET 0.069520 -0.091406 -0.006815
		CHANNELS 3 Zrotation Yrotation Xrotation
		JOINT LeftLeg
		{
			OFFSET 0.034277 -0.375199 -0.004496
			CHANNELS 3 Zrotation Yrotation Xrotation
			JOINT LeftFoot
			{
				OFFSET -0.013596 -0.397961 -0.043693
				CHANNELS 3 Zrotation Yrotation Xrotation
				JOINT LeftToe
				{
					OFFSET 0.026358 -0.055791 0.119288
					CHANNELS 3 Zrotation Yrotation Xrotation
					End Site
					{
						OFFSET 0.000000 0.000000 0.000000
					}
				}
			}
		}
	}
	JOINT RightUpLeg
	{
		OFFSET -0.067670 -0.090522 -0.004320
		CHANNELS 3 Zrotation Yrotation Xrotation
		JOINT RightLeg
		{
			OFFSET -0.038290 -0.382569 -0.008850
			CHANNELS 3 Zrotation Yrotation Xrotation
			JOINT RightFoot
			{
				OFFSET 0.015774 -0.398415 -0.042312
				CHANNELS 3 Zrotation Yrotation Xrotation
				JOINT RightToe
				{
					OFFSET -0.025372 -0.048144 0.123348
					CHANNELS 3 Zrotation Yrotation Xrotation
					End Site
					{
						OFFSET 0.000000 0.000000 0.000000
					}
				}
			}
		}
	}
	JOINT Spine
	{
		OFFSET -0.002533 0.108963 -0.026696
		CHANNELS 3 Zrotation Yrotation Xrotation
		JOINT Spine1
		{
			OFFSET 0.005487 0.135180 0.001092
			CHANNELS 3 Zrotation Yrotation Xrotation
			JOINT Spine2
			{
				OFFSET 0.001457 0.052922 0.025425
				CHANNELS 3 Zrotation Yrotation Xrotation
				JOINT Neck
				{
					OFFSET -0.002778 0.213870 -0.042857
					CHANNELS 3 Zrotation Yrotation Xrotation
					JOINT Head
					{
						OFFSET 0.005152 0.064970 0.051349
						CHANNELS 3 Zrotation Yrotation Xrotation
						End Site
						{
							OFFSET 0.000000 0.000000 0.000000
						}
					}
				}
				JOINT LeftShoulder
				{
					OFFSET 0.078845 0.121749 -0.034090
					CHANNELS 3 Zrotation Yrotation Xrotation
					JOINT LeftArm
					{
						OFFSET 0.090977 0.030469 -0.008868
						CHANNELS 3 Zrotation Yrotation Xrotation
						JOINT LeftForeArm
						{
							OFFSET 0.259612 -0.012772 -0.027456
							CHANNELS 3 Zrotation Yrotation Xrotation
							JOINT LeftHand
							{
								OFFSET 0.249234 0.008986 -0.001171
								CHANNELS 3 Zrotation Yrotation Xrotation
								End Site
								{
									OFFSET 0.000000 0.000000 0.000000
								}
							}
						}
					}
				}
				JOINT RightShoulder
				{
					OFFSET -0.081759 0.118833 -0.038615
					CHANNELS 3 Zrotation Yrotation Xrotation
					JOINT RightArm
					{
						OFFSET -0.096012 0.032551 -0.009143
						CHANNELS 3 Zrotation Yrotation Xrotation
						JOINT RightForeArm
						{
							OFFSET -0.253742 -0.013329 -0.021401
							CHANNELS 3 Zrotation Yrotation Xrotation
							JOINT RightHand
							{
								OFFSET -0.255298 0.007772 -0.005559
								CHANNELS 3 Zrotation Yrotation Xrotation
								End Site
								{
									OFFSET 0.000000 0.000000 0.000000
								}
							}
						}
					}
				}
			}
		}
	}
}
MOTION
Frames: 7
Frame Time: 0.050000
0.000000 0.949772 0.000000 -2.930250 -0.949750 9.078244 6.025409 -0.390090 -5.015234 -6.542836 0.430241 -12.884707 -0.159675 5.108895 15.127602 0.000000 0.000000 0.000000 -2.644984 0.750568 -8.029006 -0.889549 -0.103448 -4.058691 -4.982208 -15.342298 20.058407 0.000000 0.000000 0.000000 1.564242 0.173694 -4.223703 -0.216653 0.207564 -4.801150 0.545044 -0.772041 4.040208 2.191041 -0.471243 -14.206736 0.000000 0.000000 0.000000 -16.516239 5.066256 -3.890463 -57.046327 -6.427294 -3.593914 -8.389523 -17.846927 2.026949 0.000000 0.000000 0.000000 14.927018 -4.661784 -3.965544 61.095585 6.887983 -2.274250 4.548618 16.449245 1.062204 0.000000 0.000000 0.000000 
0.000108 0.948501 0.001180 -3.223213 -2.704318 9.677086 5.681738 -0.369798 -4.691895 -5.536451 0.471132 -14.017289 0.743221 6.266896 15.134657 0.000000 0.000000 0.000000 -2.743523 0.846506 -9.102238 -0.450227 -0.110414 -3.540235 -4.096997 -14.139532 19.131494 0.000000 0.000000 0.000000 2.040447 0.192389 -4.512112 -0.862072 0.456871 -4.907644 1.403704 -0.348475 3.332300 1.505458 -0.073800 -14.646707 0.000000 0.000000 0.000000 -17.495348 6.711906 -4.757296 -56.490822 -5.840253 -3.758043 -9.300773 -18.107179 2.224497 0.000000 0.000000 0.000000 13.808893 -4.949575 -4.049825 61.245349 6.088022 -2.664918 5.556378 17.687425 1.254064 0.000000 0.000000 0.000000 
0.000261 0.948001 0.002149 -2.950531 -2.433349 9.301670 5.460361 -0.346066 -4.106141 -5.712918 0.459553 -14.302834 0.548578 5.997791 15.090445 0.000000 0.000000 0.000000 -2.741066 0.807763 -8.669468 -0.674726 -0.105212 -3.762005 -4.871563 -15.364917 19.642780 0.000000 0.000000 0.000000 1.871637 0.153055 -3.842135 -0.484705 0.326263 -6.322411 0.976116 -0.694940 3.603914 1.251570 -0.000337 -13.701095 0.000000 0.000000 0.000000 -16.845370 5.898751 -4.212599 -56.759123 -5.148473 -4.125862 -9.091564 -17.735290 2.146331 0.000000 0.000000 0.000000 14.937383 -4.210342 -3.911434 59.835062 5.665300 -2.818533 4.624432 17.413375 1.108482 0.000000 0.000000 0.000000 
0.000415 0.947569 0.003144 -3.371544 -3.076218 9.454431 5.785154 -0.333006 -3.977461 -5.548613 0.478642 -14.502722 0.935296 6.465951 14.919907 0.000000 0.000000 0.000000 -2.556424 0.873723 -9.366941 -0.282667 -0.107966 -3.213800 -4.795330 -15.413910 20.135172 0.000000 0.000000 0.000000 1.862226 0.153463 -3.820810 -0.764268 0.430999 -6.493604 2.271442 -1.384323 2.865538 0.821537 0.145405 -13.485983 0.000000 0.000000 0.000000 -16.816545 7.204229 -4.650648 -57.839307 -4.883120 -4.207736 -8.584802 -17.338833 2.056216 0.000000 0.000000 0.000000 13.769450 -3.810627 -3.752826 59.239591 5.612509 -2.792598 5.633992 16.926045 1.156872 0.000000 0.000000 0.000000 
0.000528 0.947418 0.003967 -3.217511 -2.748700 9.163256 5.405515 -0.315921 -3.507528 -5.195600 0.472311 -14.772265 0.729581 6.189767 14.897256 0.000000 0.000000 0.000000 -2.579385 0.826663 -8.842520 -0.424332 -0.111788 -3.535732 -5.151524 -15.925486 20.398121 0.000000 0.000000 0.000000 1.589764 0.159308 -3.879787 -0.468676 0.313099 -6.159548 2.366327 -1.676936 2.636886 0.493047 0.350946 -13.648748 0.000000 0.000000 0.000000 -16.907928 6.964141 -4.520677 -57.755709 -5.156429 -4.057649 -8.820125 -16.603494 1.995988 0.000000 0.000000 0.000000 13.414882 -3.709058 -3.659466 59.078174 5.972688 -2.599955 5.572667 15.636871 1.051028 0.000000 0.000000 0.000000 
0.000683 0.947486 0.004466 -3.208741 -3.098719 9.221447 5.346377 -0.309763 -3.433216 -5.162629 0.482808 -14.869287 0.887470 6.404354 14.960354 0.000000 0.000000 0.000000 -2.660650 0.840191 -9.008477 -0.362469 -0.109823 -3.389584 -4.980661 -15.713418 20.307876 0.000000 0.000000 0.000000 1.388010 0.163006 -3.904421 -0.443739 0.303500 -6.505594 2.933042 -1.803578 2.806727 0.647866 0.210677 -13.576243 0.000000 0.000000 0.000000 -16.826784 7.343098 -4.620918 -58.225464 -5.236667 -4.045611 -8.393533 -16.529966 1.940059 0.000000 0.000000 0.000000 12.692284 -2.992564 -3.258486 58.804107 6.394576 -2.427014 5.594484 15.066647 1.004323 0.000000 0.000000 0.000000 
0.000828 0.947494 0.004618 -3.177080 -3.134699 9.187459 5.307941 -0.310019 -3.448673 -5.178134 0.483686 -14.754199 0.911498 6.425181 14.908727 0.000000 0.000000 0.000000 -2.577156 0.828292 -8.837542 -0.589497 -0.104891 -3.620835 -4.942681 -15.664764 20.345597 0.000000 0.000000 0.000000 1.388318 0.171204 -4.044962 -0.383175 0.273661 -6.177777 3.036629 -1.808699 2.511287 0.816950 0.120719 -13.821053 0.000000 0.000000 0.000000 -16.773738 7.277994 -4.578428 -58.195779 -5.113273 -4.073914 -8.686284 -15.995603 1.910992 0.000000 0.000000 0.000000 12.263386 -2.776720 -3.091837 58.825756 6.585093 -2.318824 5.260119 14.394770 0.918883 0.000000 0.000000 0.000000 
